<?xml version="1.0" encoding="utf-8" ?><svg xmlns="http://www.w3.org/2000/svg" xmlns:xlink="http://www.w3.org/1999/xlink" width="1024" height="1024" viewBox="0 0 1024 1024"><path d="M371.192 313.185C385.468 311.145 403.334 316.334 413.958 325.702C423.657 334.254 432.762 344.47 442.06 353.54L489.086 399.957C497.922 408.734 509.93 420.173 517.943 429.361C509.699 460.56 490.313 479.496 459.639 489.217C436.532 495.02 410.232 492.504 390.826 477.203C382.25 470.441 373.401 459.607 365.396 451.661C357.705 444.166 349.973 436.713 342.2 429.303C327.986 415.64 317.417 405.598 314.909 384.796C312.715 367.654 317.609 350.359 328.459 336.907C338.889 323.523 354.316 314.959 371.192 313.185Z"/><path d="M429.073 506.317C443.314 510.426 453.867 514.811 465.253 524.788C481.298 538.986 491.062 558.963 492.407 580.345C493.748 600.827 487.542 621.7 473.878 637.296C470.95 640.639 466.413 644.705 463.174 647.946L440.048 671.252C418.884 692.849 411.32 709.876 378.25 711.801C363.062 711.413 348.727 706.847 336.937 696.955C324.096 686.17 316.07 670.722 314.629 654.015C313.703 643.509 315.516 630.107 320.729 620.829C328.877 606.329 345.309 592.944 357.159 580.469C371.496 565.375 386.127 550.699 400.404 535.535C409.519 525.854 420.442 516.573 429.073 506.317Z"/><path d="M641.437 313.2C659.252 311.159 678.251 318.735 690.912 331.136C702.926 342.803 709.827 358.756 710.102 375.501C710.277 401.917 699.089 411.748 681.997 428.837C675.224 435.614 668.5 442.44 661.826 449.315L598.285 515.527L595.163 518.929C560.528 512.427 536.579 480.164 532.927 446.252C530.793 425.238 536.973 404.224 550.143 387.711C557.99 378.001 570.635 366.32 579.683 357.312C599.969 337.115 611.082 316.513 641.437 313.2Z"/><path d="M580.211 533.193C594.402 531.179 614.259 535.792 626.388 543.235C634.735 548.358 642.927 556.891 649.809 564.021C665.053 579.815 681.125 594.604 696.723 609.988C706.309 619.56 711.207 639.545 710.051 652.934C708.4 670.319 699.862 686.321 686.34 697.371C672.909 708.421 656.561 712.971 639.374 711.335C615.674 707.268 607.503 697.453 591.327 681.252L554.246 643.384C546.703 635.692 539.059 628.099 531.317 620.608C523.156 612.831 513.859 604.425 506.195 596.286C508.423 584.916 513.429 574.274 520.768 565.308C535.939 546.653 556.376 535.742 580.211 533.193Z"/></svg>