<svg viewBox="0 0 800 640" xmlns="http://www.w3.org/2000/svg" aria-labelledby="title desc" role="img">
  <title id="title">Integracion de sistemas</title>
  <desc id="desc">Ilustracion isometrica de un modulo central de integracion conectado con ERP, Excel, Correo y BI.</desc>
  <rect width="100%" height="100%" fill="#FFFFFF" />

  <line x1="220" y1="230" x2="340" y2="290" stroke="#8A96A8" stroke-width="1.25" stroke-dasharray="4 4" fill="none" />
  <line x1="580" y1="230" x2="460" y2="290" stroke="#8A96A8" stroke-width="1.25" stroke-dasharray="4 4" fill="none" />
  <line x1="220" y1="410" x2="340" y2="350" stroke="#8A96A8" stroke-width="1.25" stroke-dasharray="4 4" fill="none" />
  <line x1="580" y1="410" x2="460" y2="350" stroke="#8A96A8" stroke-width="1.25" stroke-dasharray="4 4" fill="none" />

  <g stroke="#8A96A8" stroke-width="1.25" stroke-linejoin="round" stroke-linecap="round">
    <polygon points="160,220 200,240 200,234 160,214" fill="#E9ECEF" />
    <polygon points="200,240 240,220 240,214 200,234" fill="#F1F3F5" />
    <polygon points="200,194 240,214 200,234 160,214" fill="#F8F9FA" />
    <polygon points="168,214 200,230 200,222 168,206" fill="#E9ECEF" />
    <polygon points="200,230 232,214 232,206 200,222" fill="#F1F3F5" />
    <polygon points="200,190 232,206 200,222 168,206" fill="#FFFFFF" />
    <polygon points="200,196 220,206 200,216 180,206" fill="#F8F9FA" />

    <polygon points="560,220 600,240 600,230 560,210" fill="#E9ECEF" />
    <polygon points="600,240 640,220 640,210 600,230" fill="#F1F3F5" />
    <polygon points="600,190 640,210 600,230 560,210" fill="#FFFFFF" />
    <polygon points="600,190 614,197 600,204 586,197" fill="#F1F3F5" />
    <path d="M574 217 614 197M586 223 626 203M574 203 614 223M586 197 626 217" fill="none" />

    <polygon points="280,320 400,380 400,396 280,336" fill="#E9ECEF" />
    <polygon points="400,380 520,320 520,336 400,396" fill="#F1F3F5" />
    <line x1="340" y1="350" x2="340" y2="366" />
    <line x1="310" y1="335" x2="310" y2="351" />
    <line x1="460" y1="350" x2="460" y2="366" />
    <line x1="490" y1="335" x2="490" y2="351" />

    <polygon points="400,260 520,320 400,380 280,320" fill="#F8F9FA" />
    <polygon points="400,272 504,324 400,376 296,324" fill="#F1F3F5" />
    <polygon points="400,268 296,320 296,324 400,272" fill="#DDE2E5" />
    <polygon points="400,268 504,320 504,324 400,272" fill="#E9ECEF" />

    <polygon points="340,324 400,354 400,342 340,312" fill="#E9ECEF" />
    <polygon points="400,354 460,324 460,312 400,342" fill="#F1F3F5" />
    <polygon points="400,282 460,312 400,342 340,312" fill="#FFFFFF" />

    <polygon points="400,286 452,312 400,338 348,312" fill="none" />
    <polygon points="400,290 444,312 400,334 356,312" fill="none" />

    <path d="M460 290 452 294 452 298 430 309 430 297 408 308" fill="none" stroke="#A0AAB7" />
    <path d="M340 350 348 346 348 350 370 339 370 327 392 316" fill="none" stroke="#A0AAB7" />
    <path d="M340 290 348 294 348 298 370 309 370 297 392 308" fill="none" stroke="#A0AAB7" />
    <path d="M460 350 452 346 452 350 430 339 430 327 408 316" fill="none" stroke="#A0AAB7" />

    <polygon points="458,290 460,289 462,290 460,291" fill="#8A96A8" />
    <polygon points="458,350 460,349 462,350 460,351" fill="#8A96A8" />
    <polygon points="338,350 340,349 342,350 340,351" fill="#8A96A8" />
    <polygon points="338,290 340,289 342,290 340,291" fill="#8A96A8" />

    <polygon points="390,312 400,317 410,312 400,307" fill="none" />
    <polygon points="394,312 400,315 406,312 400,309" fill="#2D6A4F" stroke="#2D6A4F" />

    <polygon points="160,420 200,440 200,432 160,412" fill="#E9ECEF" />
    <polygon points="200,440 240,420 240,412 200,432" fill="#F1F3F5" />
    <polygon points="200,392 240,412 200,432 160,412" fill="#FFFFFF" />
    <polygon points="200,395 234,412 200,429 166,412" fill="none" />
    <path d="M166 412 200 416 234 412" fill="none" />
    <path d="M166 412 200 408 234 412" fill="none" />

    <polygon points="560,420 600,440 600,434 560,414" fill="#E9ECEF" />
    <polygon points="600,440 640,420 640,414 600,434" fill="#F1F3F5" />
    <polygon points="600,394 640,414 600,434 560,414" fill="#FFFFFF" />

    <polygon points="574,414 580,417 580,409 574,406" fill="#E9ECEF" />
    <polygon points="580,417 586,414 586,406 580,409" fill="#F1F3F5" />
    <polygon points="580,403 586,406 580,409 574,406" fill="#F8F9FA" />

    <polygon points="594,414 600,417 600,399 594,396" fill="#E9ECEF" />
    <polygon points="600,417 606,414 606,396 600,399" fill="#F1F3F5" />
    <polygon points="600,393 606,396 600,399 594,396" fill="#F8F9FA" />

    <polygon points="614,414 620,417 620,405 614,402" fill="#E9ECEF" />
    <polygon points="620,417 626,414 626,402 620,405" fill="#F1F3F5" />
    <polygon points="620,399 626,402 620,405 614,402" fill="#F8F9FA" />
  </g>

  <text x="200" y="165" font-family="'Geist Sans', system-ui, sans-serif" font-size="11" font-weight="600" fill="#6B7280" text-anchor="middle" letter-spacing="1.2">ERP</text>
  <text x="600" y="165" font-family="'Geist Sans', system-ui, sans-serif" font-size="11" font-weight="600" fill="#6B7280" text-anchor="middle" letter-spacing="1.2">EXCEL</text>
  <text x="200" y="475" font-family="'Geist Sans', system-ui, sans-serif" font-size="11" font-weight="600" fill="#6B7280" text-anchor="middle" letter-spacing="1.2">CORREO</text>
  <text x="600" y="475" font-family="'Geist Sans', system-ui, sans-serif" font-size="11" font-weight="600" fill="#6B7280" text-anchor="middle" letter-spacing="1.2">BI</text>
</svg>
